<svg xmlns="http://www.w3.org/2000/svg" xmlns:xlink="http://www.w3.org/1999/xlink" version="1.1" x="0px" y="0px" viewBox="0 0 100 125" enable-background="new 0 0 100 100" xml:space="preserve"><g fill="red"><path  d="M42.101,80.682h14.576c0.631-3.473,1.151-5.774,1.583-8.932H40.909C41.375,76.549,41.872,79.134,42.101,80.682z"/><path d="M39.986,46.168h19.865c-0.148-5.253-0.632-9.784-1.326-13.681H41.271C40.547,36.885,40.152,41.538,39.986,46.168z"/><path d="M49.986,11.936c-3.882,3.222-5.494,7.411-7.202,13.56h14.113C54.176,16.287,51.387,13.194,49.986,11.936z"/><path d="M40.406,65.757h18.576c0.48-4.54,0.76-8.737,0.864-12.597H39.893C39.929,57.61,40.133,61.896,40.406,65.757z"/><path d="M70.242,35.35c-0.554-4.357-1.006-7.047-2.542-10.924c-2.033-5.134-4.822-10.355-8.959-14.06   c-2.913-2.608-7.357-7.199-11.634-4.559c-2.593,1.6-4.977,3.471-7.12,5.651C35.5,16.021,30.682,22.874,29.767,35.3   c-0.036,0.48-0.154,1.096,0.324,1.132c0.465,0.038,0.648-0.327,0.683-0.808c0.839-11.393,5.715-18.026,10.389-22.819   c-0.2,0.267-0.401,0.537-0.602,0.82c-3.705,5.217-7.552,14.159-7.552,27.324c0,0.491,0.088,0.93,0.571,0.93   c0.484,0,0.401-0.475,0.401-0.966c0-14.059,5.249-23.247,9.679-28.505C27.643,36.23,38.485,91.54,38.485,91.54h5.95   c0.253,0.781,0.528,1.349,0.739,1.455c0.354,0.177,0.667,0.491,0.695,0.698s0.381,0.608,0.784,0.891   c0.404,0.283,1.621,0.514,2.704,0.514c1.083,0,2.3-0.231,2.704-0.514c0.404-0.283,0.757-0.683,0.784-0.891   c0.028-0.207,0.34-0.521,0.695-0.698c0.211-0.105,0.487-0.674,0.739-1.455h5.857c9.283-46.114,2.638-68.299-3.402-78.328   c4.275,5.369,9.021,14.333,9.021,27.701c0,0.491-0.083,0.966,0.4,0.966c0.484,0,0.571-0.439,0.571-0.93   c0-13.165-3.847-22.107-7.552-27.324c-0.366-0.515-0.73-0.995-1.093-1.459c0.193,0.188,0.386,0.378,0.58,0.576   c4.258,4.348,9.696,10.891,10.569,22.751c0.034,0.459,0.093,0.944,0.542,0.944c0.021,0,0.043-0.001,0.065-0.003   C70.317,36.397,70.302,35.828,70.242,35.35z M58.508,82.679H40.245c0,0-9.588-58.484,9.75-73.021   C49.994,9.658,69.597,22.791,58.508,82.679z"/></g></svg>