<?xml version="1.0" encoding="UTF-8"?>
<svg xmlns="http://www.w3.org/2000/svg" xmlns:xlink="http://www.w3.org/1999/xlink" width="46px" height="40px" viewBox="0 0 46 40" version="1.1">
<g id="surface1">
<path style=" stroke:none;fill-rule:nonzero;fill:rgb(0%,0%,0%);fill-opacity:1;" d="M 22.441406 0.757812 L 21.796875 1.511719 L 20.222656 1.515625 L 18.648438 1.515625 L 18.660156 1.867188 L 18.667969 2.21875 L 19.824219 2.238281 L 20.976562 2.257812 L 20.839844 2.832031 C 20.765625 3.152344 20.496094 4.269531 20.246094 5.324219 C 20 6.375 19.78125 7.253906 19.765625 7.269531 C 19.746094 7.289062 19.113281 7.371094 18.355469 7.457031 C 17.597656 7.546875 13.828125 7.976562 9.972656 8.410156 C 6.121094 8.847656 2.84375 9.230469 2.695312 9.261719 C 1.972656 9.421875 1.125 9.785156 0.714844 10.117188 C 0.230469 10.503906 0.0390625 10.832031 0.0117188 11.308594 C -0.046875 12.234375 0.574219 13.097656 1.582031 13.496094 C 1.6875 13.539062 1.941406 13.613281 2.136719 13.664062 C 2.457031 13.746094 2.722656 13.769531 4.582031 13.882812 C 5.726562 13.949219 7.207031 14.039062 7.863281 14.078125 C 8.984375 14.148438 9.726562 14.191406 12.660156 14.367188 C 15.390625 14.53125 16.359375 14.589844 17.464844 14.65625 C 18.109375 14.695312 18.84375 14.738281 19.09375 14.75 C 19.378906 14.765625 19.5625 14.789062 19.570312 14.816406 C 19.589844 14.871094 20.886719 31.882812 20.871094 31.894531 C 20.867188 31.902344 20.636719 32.007812 20.359375 32.132812 C 19.304688 32.605469 17.878906 33.367188 17.070312 33.890625 C 16.121094 34.5 15.359375 35.183594 15.179688 35.578125 C 14.972656 36.035156 14.832031 36.769531 14.910156 36.976562 L 14.949219 37.074219 L 18.171875 37.074219 L 21.402344 37.078125 L 22.191406 38.519531 C 22.625 39.3125 22.988281 39.964844 23 39.964844 C 23.011719 39.964844 23.375 39.316406 23.808594 38.527344 L 24.597656 37.09375 L 27.828125 37.082031 L 31.054688 37.074219 L 31.089844 36.976562 C 31.171875 36.769531 31.027344 36.035156 30.816406 35.566406 C 30.597656 35.082031 29.59375 34.261719 28.265625 33.484375 C 27.605469 33.09375 26.402344 32.476562 25.664062 32.144531 L 25.113281 31.894531 L 25.132812 31.695312 C 25.140625 31.589844 25.4375 27.742188 25.789062 23.160156 C 26.136719 18.570312 26.433594 14.808594 26.445312 14.796875 C 26.457031 14.785156 27.898438 14.691406 29.648438 14.589844 C 31.398438 14.484375 33.339844 14.367188 33.960938 14.332031 C 34.582031 14.292969 35.644531 14.230469 36.316406 14.1875 C 44.140625 13.71875 43.460938 13.769531 43.863281 13.664062 C 44.554688 13.492188 44.984375 13.261719 45.375 12.875 C 46.078125 12.167969 46.203125 11.117188 45.660156 10.46875 C 45.234375 9.960938 44.292969 9.480469 43.304688 9.261719 C 43.15625 9.230469 39.882812 8.847656 36.027344 8.410156 C 32.175781 7.976562 28.402344 7.546875 27.644531 7.457031 C 26.886719 7.371094 26.253906 7.289062 26.238281 7.269531 C 26.21875 7.253906 26.101562 6.785156 25.972656 6.226562 C 25.839844 5.671875 25.601562 4.671875 25.445312 4.007812 C 25.285156 3.34375 25.125 2.671875 25.089844 2.515625 L 25.023438 2.238281 L 27.347656 2.238281 L 27.347656 1.515625 L 25.777344 1.515625 L 24.203125 1.511719 L 23.652344 0.757812 C 23.347656 0.339844 23.097656 0 23.09375 0 C 23.09375 0.00390625 22.796875 0.34375 22.441406 0.757812 Z M 22.441406 0.757812 "/>
</g>
</svg>
