<?xml version="1.0" encoding="UTF-8"?>
<svg xmlns="http://www.w3.org/2000/svg" xmlns:xlink="http://www.w3.org/1999/xlink" width="20px" height="20px" viewBox="0 0 20 20" version="1.1">
<g id="surface1">
<path style=" stroke:none;fill-rule:nonzero;fill:rgb(0%,0%,0%);fill-opacity:1;" d="M 3.5 3.496094 L 3.777344 3.496094 L 3.777344 10.527344 L 15.082031 10.527344 C 16.003906 10.527344 16.75 9.777344 16.75 8.859375 C 16.75 7.941406 16.003906 7.191406 15.082031 7.191406 L 9.246094 7.191406 C 9.105469 7.191406 8.996094 7.082031 8.996094 6.941406 L 8.996094 3.496094 L 9.273438 3.496094 C 9.410156 3.496094 9.523438 3.382812 9.523438 3.246094 C 9.523438 3.105469 9.410156 2.996094 9.273438 2.996094 L 3.5 2.996094 C 3.363281 2.996094 3.25 3.105469 3.25 3.246094 C 3.25 3.382812 3.363281 3.496094 3.5 3.496094 Z M 5.171875 4.328125 L 7.605469 4.328125 L 7.605469 6.761719 L 5.171875 6.761719 Z M 5.171875 4.328125 "/>
<path style=" stroke:none;fill-rule:nonzero;fill:rgb(0%,0%,0%);fill-opacity:1;" d="M 10.691406 6.359375 L 11.605469 6.359375 L 11.605469 6.691406 L 10.691406 6.691406 Z M 10.691406 6.359375 "/>
<path style=" stroke:none;fill-rule:nonzero;fill:rgb(0%,0%,0%);fill-opacity:1;" d="M 11.234375 13.003906 C 11.753906 13.003906 12.191406 12.640625 12.304688 12.152344 L 10.164062 12.152344 C 10.277344 12.640625 10.710938 13.003906 11.234375 13.003906 Z M 11.234375 13.003906 "/>
<path style=" stroke:none;fill-rule:nonzero;fill:rgb(0%,0%,0%);fill-opacity:1;" d="M 4.882812 13.003906 C 5.402344 13.003906 5.839844 12.640625 5.953125 12.152344 L 3.808594 12.152344 C 3.925781 12.640625 4.359375 13.003906 4.882812 13.003906 Z M 4.882812 13.003906 "/>
<path style=" stroke:none;fill-rule:nonzero;fill:rgb(0%,0%,0%);fill-opacity:1;" d="M 8.058594 13.003906 C 8.578125 13.003906 9.015625 12.640625 9.128906 12.152344 L 6.988281 12.152344 C 7.101562 12.640625 7.535156 13.003906 8.058594 13.003906 Z M 8.058594 13.003906 "/>
<path style=" stroke:none;fill-rule:nonzero;fill:rgb(0%,0%,0%);fill-opacity:1;" d="M 13.261719 4.710938 L 13.261719 6.691406 L 14.765625 6.691406 L 14.765625 4.710938 C 14.765625 4.644531 14.792969 4.582031 14.835938 4.535156 L 15.238281 4.132812 L 14.859375 3.375 L 13.167969 3.375 L 12.789062 4.132812 L 13.1875 4.535156 C 13.238281 4.582031 13.261719 4.644531 13.261719 4.710938 Z M 13.261719 4.710938 "/>
<path style=" stroke:none;fill-rule:nonzero;fill:rgb(0%,0%,0%);fill-opacity:1;" d="M 13.363281 11.769531 L 13.816406 12.480469 L 16.40625 12.480469 L 14.976562 11.027344 L 3.777344 11.027344 L 3.777344 11.652344 L 13.152344 11.652344 C 13.238281 11.652344 13.316406 11.695312 13.363281 11.769531 Z M 13.363281 11.769531 "/>
</g>
</svg>
