<?xml version="1.0" encoding="UTF-8"?>
<svg xmlns="http://www.w3.org/2000/svg" xmlns:xlink="http://www.w3.org/1999/xlink" width="60px" height="60px" viewBox="0 0 60 60" version="1.1">
<g id="surface1">
<path style=" stroke:none;fill-rule:nonzero;fill:rgb(0%,0%,0%);fill-opacity:1;" d="M 30 2.398438 C 21.515625 2.398438 14.636719 9.277344 14.636719 17.761719 C 14.636719 26.25 30.46875 45.601562 30.46875 45.601562 C 30.46875 45.601562 45.363281 26.25 45.363281 17.761719 C 45.363281 9.277344 38.484375 2.398438 30 2.398438 Z M 30 5.519531 C 33.246094 5.519531 36.363281 6.808594 38.65625 9.105469 C 40.953125 11.402344 42.246094 14.515625 42.246094 17.761719 C 42.246094 21.011719 40.953125 24.125 38.65625 26.421875 C 36.363281 28.71875 33.246094 30.007812 30 30.007812 C 26.753906 30.007812 23.636719 28.71875 21.339844 26.421875 C 19.046875 24.125 17.753906 21.011719 17.753906 17.761719 C 17.753906 14.515625 19.046875 11.402344 21.339844 9.105469 C 23.636719 6.808594 26.753906 5.519531 30 5.519531 Z M 30 5.519531 "/>
<path style=" stroke:none;fill-rule:nonzero;fill:rgb(0%,0%,0%);fill-opacity:1;" d="M 24.855469 11.589844 L 24.855469 22.808594 L 23.15625 22.808594 L 23.15625 23.9375 L 36.84375 23.9375 L 36.84375 22.808594 L 35.035156 22.808594 L 35.035156 18.871094 L 33.90625 18.871094 L 33.90625 22.808594 L 32.773438 22.808594 L 32.773438 16.621094 L 31.644531 16.621094 L 31.644531 22.808594 L 30.507812 22.808594 L 30.507812 18.871094 L 29.378906 18.871094 L 29.378906 22.808594 L 28.246094 22.808594 L 28.246094 14.371094 L 27.117188 14.371094 L 27.117188 22.808594 L 25.984375 22.808594 L 25.984375 11.589844 Z M 24.855469 11.589844 "/>
<path style=" stroke:none;fill-rule:nonzero;fill:rgb(0%,0%,0%);fill-opacity:1;" d="M 7.609375 55.105469 C 7.527344 55.144531 7.4375 55.179688 7.347656 55.199219 C 7.257812 55.222656 7.164062 55.234375 7.066406 55.234375 C 6.777344 55.234375 6.546875 55.152344 6.375 54.988281 C 6.203125 54.828125 6.121094 54.605469 6.121094 54.328125 C 6.121094 54.046875 6.203125 53.828125 6.375 53.664062 C 6.546875 53.5 6.777344 53.417969 7.066406 53.417969 C 7.164062 53.417969 7.257812 53.429688 7.347656 53.453125 C 7.4375 53.472656 7.527344 53.503906 7.609375 53.546875 L 7.609375 53.910156 C 7.523438 53.855469 7.441406 53.8125 7.359375 53.785156 C 7.28125 53.757812 7.195312 53.746094 7.105469 53.746094 C 6.941406 53.746094 6.816406 53.796875 6.722656 53.902344 C 6.632812 54.003906 6.585938 54.144531 6.585938 54.328125 C 6.585938 54.507812 6.632812 54.648438 6.722656 54.753906 C 6.816406 54.855469 6.941406 54.90625 7.105469 54.90625 C 7.195312 54.90625 7.28125 54.894531 7.359375 54.867188 C 7.441406 54.839844 7.523438 54.800781 7.609375 54.742188 Z M 7.609375 55.105469 "/>
<path style=" stroke:none;fill-rule:nonzero;fill:rgb(0%,0%,0%);fill-opacity:1;" d="M 8.9375 54.246094 C 8.902344 54.226562 8.863281 54.214844 8.828125 54.207031 C 8.792969 54.199219 8.753906 54.195312 8.71875 54.195312 C 8.609375 54.195312 8.527344 54.230469 8.46875 54.296875 C 8.410156 54.367188 8.382812 54.464844 8.382812 54.59375 L 8.382812 55.199219 L 7.964844 55.199219 L 7.964844 53.886719 L 8.382812 53.886719 L 8.382812 54.101562 C 8.4375 54.015625 8.5 53.957031 8.566406 53.914062 C 8.636719 53.875 8.722656 53.855469 8.820312 53.855469 C 8.832031 53.855469 8.847656 53.855469 8.863281 53.859375 C 8.882812 53.859375 8.90625 53.863281 8.9375 53.863281 Z M 8.9375 54.246094 "/>
<path style=" stroke:none;fill-rule:nonzero;fill:rgb(0%,0%,0%);fill-opacity:1;" d="M 10.457031 54.539062 L 10.457031 54.660156 L 9.476562 54.660156 C 9.484375 54.757812 9.523438 54.832031 9.582031 54.882812 C 9.644531 54.929688 9.730469 54.953125 9.839844 54.953125 C 9.925781 54.953125 10.015625 54.941406 10.109375 54.917969 C 10.203125 54.890625 10.296875 54.851562 10.394531 54.796875 L 10.394531 55.121094 C 10.296875 55.15625 10.195312 55.183594 10.097656 55.203125 C 9.996094 55.222656 9.898438 55.234375 9.800781 55.234375 C 9.5625 55.234375 9.378906 55.171875 9.246094 55.050781 C 9.113281 54.933594 9.046875 54.761719 9.046875 54.546875 C 9.046875 54.332031 9.113281 54.164062 9.242188 54.039062 C 9.371094 53.917969 9.550781 53.855469 9.777344 53.855469 C 9.980469 53.855469 10.148438 53.917969 10.269531 54.042969 C 10.394531 54.167969 10.457031 54.332031 10.457031 54.539062 Z M 10.027344 54.402344 C 10.027344 54.320312 10.003906 54.257812 9.957031 54.207031 C 9.910156 54.160156 9.847656 54.136719 9.773438 54.136719 C 9.691406 54.136719 9.625 54.15625 9.574219 54.203125 C 9.523438 54.25 9.492188 54.316406 9.480469 54.402344 Z M 10.027344 54.402344 "/>
<path style=" stroke:none;fill-rule:nonzero;fill:rgb(0%,0%,0%);fill-opacity:1;" d="M 11.363281 54.609375 C 11.273438 54.609375 11.210938 54.625 11.164062 54.652344 C 11.121094 54.683594 11.097656 54.726562 11.097656 54.785156 C 11.097656 54.839844 11.117188 54.878906 11.152344 54.910156 C 11.1875 54.941406 11.238281 54.953125 11.300781 54.953125 C 11.378906 54.953125 11.445312 54.925781 11.5 54.871094 C 11.554688 54.8125 11.582031 54.742188 11.582031 54.65625 L 11.582031 54.609375 Z M 12.003906 54.453125 L 12.003906 55.199219 L 11.582031 55.199219 L 11.582031 55.003906 C 11.523438 55.085938 11.460938 55.144531 11.390625 55.179688 C 11.320312 55.214844 11.234375 55.234375 11.132812 55.234375 C 10.996094 55.234375 10.886719 55.195312 10.804688 55.117188 C 10.71875 55.035156 10.675781 54.933594 10.675781 54.804688 C 10.675781 54.652344 10.726562 54.539062 10.832031 54.46875 C 10.941406 54.394531 11.105469 54.359375 11.332031 54.359375 L 11.582031 54.359375 L 11.582031 54.328125 C 11.582031 54.261719 11.554688 54.210938 11.503906 54.183594 C 11.449219 54.152344 11.367188 54.136719 11.257812 54.136719 C 11.167969 54.136719 11.082031 54.144531 11.003906 54.160156 C 10.929688 54.179688 10.855469 54.207031 10.789062 54.242188 L 10.789062 53.921875 C 10.878906 53.902344 10.96875 53.882812 11.058594 53.871094 C 11.152344 53.863281 11.242188 53.855469 11.332031 53.855469 C 11.570312 53.855469 11.742188 53.902344 11.84375 53.996094 C 11.949219 54.089844 12.003906 54.242188 12.003906 54.453125 Z M 12.003906 54.453125 "/>
<path style=" stroke:none;fill-rule:nonzero;fill:rgb(0%,0%,0%);fill-opacity:1;" d="M 12.851562 53.515625 L 12.851562 53.886719 L 13.285156 53.886719 L 13.285156 54.1875 L 12.851562 54.1875 L 12.851562 54.746094 C 12.851562 54.804688 12.863281 54.847656 12.886719 54.867188 C 12.914062 54.890625 12.960938 54.898438 13.03125 54.898438 L 13.246094 54.898438 L 13.246094 55.199219 L 12.886719 55.199219 C 12.722656 55.199219 12.605469 55.164062 12.535156 55.097656 C 12.464844 55.027344 12.433594 54.910156 12.433594 54.746094 L 12.433594 54.1875 L 12.222656 54.1875 L 12.222656 53.886719 L 12.433594 53.886719 L 12.433594 53.515625 Z M 12.851562 53.515625 "/>
<path style=" stroke:none;fill-rule:nonzero;fill:rgb(0%,0%,0%);fill-opacity:1;" d="M 14.851562 54.539062 L 14.851562 54.660156 L 13.871094 54.660156 C 13.878906 54.757812 13.917969 54.832031 13.976562 54.882812 C 14.039062 54.929688 14.125 54.953125 14.234375 54.953125 C 14.320312 54.953125 14.410156 54.941406 14.503906 54.917969 C 14.597656 54.890625 14.691406 54.851562 14.789062 54.796875 L 14.789062 55.121094 C 14.691406 55.15625 14.589844 55.183594 14.492188 55.203125 C 14.390625 55.222656 14.292969 55.234375 14.195312 55.234375 C 13.957031 55.234375 13.773438 55.171875 13.640625 55.050781 C 13.507812 54.933594 13.441406 54.761719 13.441406 54.546875 C 13.441406 54.332031 13.507812 54.164062 13.636719 54.039062 C 13.765625 53.917969 13.945312 53.855469 14.171875 53.855469 C 14.375 53.855469 14.542969 53.917969 14.664062 54.042969 C 14.789062 54.167969 14.851562 54.332031 14.851562 54.539062 Z M 14.421875 54.402344 C 14.421875 54.320312 14.398438 54.257812 14.351562 54.207031 C 14.304688 54.160156 14.242188 54.136719 14.167969 54.136719 C 14.085938 54.136719 14.019531 54.15625 13.96875 54.203125 C 13.917969 54.25 13.886719 54.316406 13.875 54.402344 Z M 14.421875 54.402344 "/>
<path style=" stroke:none;fill-rule:nonzero;fill:rgb(0%,0%,0%);fill-opacity:1;" d="M 16.0625 54.078125 L 16.0625 53.375 L 16.484375 53.375 L 16.484375 55.199219 L 16.0625 55.199219 L 16.0625 55.011719 C 16.003906 55.085938 15.941406 55.144531 15.871094 55.179688 C 15.800781 55.214844 15.71875 55.234375 15.628906 55.234375 C 15.46875 55.234375 15.335938 55.167969 15.230469 55.039062 C 15.128906 54.910156 15.074219 54.746094 15.074219 54.546875 C 15.074219 54.34375 15.128906 54.175781 15.230469 54.046875 C 15.335938 53.917969 15.46875 53.855469 15.628906 53.855469 C 15.71875 53.855469 15.800781 53.875 15.871094 53.910156 C 15.941406 53.945312 16.003906 54.003906 16.0625 54.078125 Z M 15.785156 54.929688 C 15.875 54.929688 15.941406 54.898438 15.992188 54.832031 C 16.039062 54.765625 16.0625 54.671875 16.0625 54.546875 C 16.0625 54.421875 16.039062 54.324219 15.992188 54.261719 C 15.941406 54.195312 15.875 54.160156 15.785156 54.160156 C 15.695312 54.160156 15.628906 54.195312 15.582031 54.261719 C 15.53125 54.324219 15.507812 54.421875 15.507812 54.546875 C 15.507812 54.671875 15.53125 54.765625 15.582031 54.832031 C 15.628906 54.898438 15.695312 54.929688 15.785156 54.929688 Z M 15.785156 54.929688 "/>
<path style=" stroke:none;fill-rule:nonzero;fill:rgb(0%,0%,0%);fill-opacity:1;" d="M 18.421875 54.929688 C 18.511719 54.929688 18.578125 54.898438 18.628906 54.832031 C 18.675781 54.765625 18.699219 54.671875 18.699219 54.546875 C 18.699219 54.421875 18.675781 54.324219 18.628906 54.261719 C 18.578125 54.195312 18.511719 54.160156 18.421875 54.160156 C 18.332031 54.160156 18.261719 54.195312 18.214844 54.261719 C 18.164062 54.324219 18.140625 54.421875 18.140625 54.546875 C 18.140625 54.667969 18.164062 54.765625 18.214844 54.832031 C 18.261719 54.898438 18.332031 54.929688 18.421875 54.929688 Z M 18.140625 54.078125 C 18.199219 54.003906 18.265625 53.945312 18.332031 53.910156 C 18.402344 53.875 18.484375 53.855469 18.578125 53.855469 C 18.738281 53.855469 18.871094 53.917969 18.976562 54.046875 C 19.078125 54.175781 19.128906 54.34375 19.128906 54.546875 C 19.128906 54.746094 19.078125 54.910156 18.976562 55.039062 C 18.871094 55.167969 18.738281 55.234375 18.578125 55.234375 C 18.484375 55.234375 18.402344 55.214844 18.332031 55.179688 C 18.265625 55.144531 18.199219 55.085938 18.140625 55.011719 L 18.140625 55.199219 L 17.722656 55.199219 L 17.722656 53.375 L 18.140625 53.375 Z M 18.140625 54.078125 "/>
<path style=" stroke:none;fill-rule:nonzero;fill:rgb(0%,0%,0%);fill-opacity:1;" d="M 19.269531 53.886719 L 19.6875 53.886719 L 20.042969 54.777344 L 20.339844 53.886719 L 20.761719 53.886719 L 20.207031 55.324219 C 20.152344 55.46875 20.089844 55.570312 20.015625 55.628906 C 19.941406 55.6875 19.84375 55.71875 19.722656 55.71875 L 19.480469 55.71875 L 19.480469 55.441406 L 19.609375 55.441406 C 19.679688 55.441406 19.734375 55.429688 19.765625 55.40625 C 19.796875 55.386719 19.824219 55.34375 19.839844 55.289062 L 19.855469 55.25 Z M 19.269531 53.886719 "/>
<path style=" stroke:none;fill-rule:nonzero;fill:rgb(0%,0%,0%);fill-opacity:1;" d="M 21.859375 53.449219 L 22.609375 53.449219 C 22.832031 53.449219 23 53.5 23.121094 53.597656 C 23.238281 53.699219 23.300781 53.839844 23.300781 54.019531 C 23.300781 54.203125 23.238281 54.34375 23.121094 54.445312 C 23 54.542969 22.832031 54.59375 22.609375 54.59375 L 22.308594 54.59375 L 22.308594 55.199219 L 21.859375 55.199219 Z M 22.308594 53.777344 L 22.308594 54.265625 L 22.558594 54.265625 C 22.648438 54.265625 22.714844 54.246094 22.761719 54.203125 C 22.8125 54.160156 22.835938 54.097656 22.835938 54.019531 C 22.835938 53.941406 22.8125 53.882812 22.761719 53.839844 C 22.714844 53.796875 22.648438 53.777344 22.558594 53.777344 Z M 22.308594 53.777344 "/>
<path style=" stroke:none;fill-rule:nonzero;fill:rgb(0%,0%,0%);fill-opacity:1;" d="M 24.246094 53.449219 L 25.859375 53.449219 L 25.859375 53.792969 L 25.277344 53.792969 L 25.277344 55.199219 L 24.828125 55.199219 L 24.828125 53.792969 L 24.246094 53.792969 Z M 24.246094 53.449219 "/>
<path style=" stroke:none;fill-rule:nonzero;fill:rgb(0%,0%,0%);fill-opacity:1;" d="M 27.390625 54.402344 L 27.390625 55.199219 L 26.96875 55.199219 L 26.96875 54.589844 C 26.96875 54.476562 26.96875 54.394531 26.960938 54.355469 C 26.957031 54.3125 26.949219 54.277344 26.933594 54.257812 C 26.917969 54.230469 26.898438 54.210938 26.867188 54.195312 C 26.839844 54.179688 26.808594 54.171875 26.773438 54.171875 C 26.683594 54.171875 26.617188 54.207031 26.566406 54.273438 C 26.515625 54.339844 26.492188 54.433594 26.492188 54.554688 L 26.492188 55.199219 L 26.074219 55.199219 L 26.074219 53.375 L 26.492188 53.375 L 26.492188 54.078125 C 26.554688 54.003906 26.621094 53.945312 26.691406 53.910156 C 26.765625 53.875 26.84375 53.855469 26.929688 53.855469 C 27.078125 53.855469 27.195312 53.902344 27.273438 53.996094 C 27.351562 54.089844 27.390625 54.222656 27.390625 54.402344 Z M 27.390625 54.402344 "/>
<path style=" stroke:none;fill-rule:nonzero;fill:rgb(0%,0%,0%);fill-opacity:1;" d="M 28.367188 54.609375 C 28.28125 54.609375 28.214844 54.625 28.171875 54.652344 C 28.128906 54.683594 28.105469 54.726562 28.105469 54.785156 C 28.105469 54.839844 28.121094 54.878906 28.160156 54.910156 C 28.195312 54.941406 28.242188 54.953125 28.304688 54.953125 C 28.386719 54.953125 28.453125 54.925781 28.503906 54.871094 C 28.558594 54.8125 28.585938 54.742188 28.585938 54.65625 L 28.585938 54.609375 Z M 29.007812 54.453125 L 29.007812 55.199219 L 28.585938 55.199219 L 28.585938 55.003906 C 28.53125 55.085938 28.46875 55.144531 28.398438 55.179688 C 28.328125 55.214844 28.242188 55.234375 28.140625 55.234375 C 28.003906 55.234375 27.894531 55.195312 27.808594 55.117188 C 27.722656 55.035156 27.683594 54.933594 27.683594 54.804688 C 27.683594 54.652344 27.734375 54.539062 27.839844 54.46875 C 27.945312 54.394531 28.113281 54.359375 28.339844 54.359375 L 28.585938 54.359375 L 28.585938 54.328125 C 28.585938 54.261719 28.5625 54.210938 28.507812 54.183594 C 28.457031 54.152344 28.375 54.136719 28.261719 54.136719 C 28.171875 54.136719 28.089844 54.144531 28.011719 54.160156 C 27.933594 54.179688 27.863281 54.207031 27.796875 54.242188 L 27.796875 53.921875 C 27.886719 53.902344 27.976562 53.882812 28.066406 53.871094 C 28.15625 53.863281 28.25 53.855469 28.339844 53.855469 C 28.574219 53.855469 28.746094 53.902344 28.851562 53.996094 C 28.957031 54.089844 29.007812 54.242188 29.007812 54.453125 Z M 29.007812 54.453125 "/>
<path style=" stroke:none;fill-rule:nonzero;fill:rgb(0%,0%,0%);fill-opacity:1;" d="M 30.71875 54.402344 L 30.71875 55.199219 L 30.296875 55.199219 L 30.296875 54.589844 C 30.296875 54.476562 30.296875 54.394531 30.289062 54.355469 C 30.285156 54.3125 30.277344 54.277344 30.261719 54.257812 C 30.246094 54.230469 30.226562 54.210938 30.195312 54.195312 C 30.167969 54.179688 30.136719 54.171875 30.101562 54.171875 C 30.011719 54.171875 29.945312 54.207031 29.894531 54.273438 C 29.84375 54.339844 29.820312 54.433594 29.820312 54.554688 L 29.820312 55.199219 L 29.402344 55.199219 L 29.402344 53.886719 L 29.820312 53.886719 L 29.820312 54.078125 C 29.882812 54.003906 29.949219 53.945312 30.019531 53.910156 C 30.09375 53.875 30.171875 53.855469 30.257812 53.855469 C 30.40625 53.855469 30.523438 53.902344 30.601562 53.996094 C 30.679688 54.089844 30.71875 54.222656 30.71875 54.402344 Z M 30.71875 54.402344 "/>
<path style=" stroke:none;fill-rule:nonzero;fill:rgb(0%,0%,0%);fill-opacity:1;" d="M 32 54.976562 C 31.945312 55.054688 31.878906 55.109375 31.8125 55.144531 C 31.742188 55.183594 31.660156 55.199219 31.570312 55.199219 C 31.410156 55.199219 31.277344 55.136719 31.171875 55.011719 C 31.066406 54.882812 31.015625 54.722656 31.015625 54.527344 C 31.015625 54.332031 31.066406 54.171875 31.171875 54.046875 C 31.277344 53.921875 31.410156 53.859375 31.570312 53.859375 C 31.660156 53.859375 31.742188 53.875 31.8125 53.914062 C 31.878906 53.949219 31.945312 54.003906 32 54.082031 L 32 53.886719 L 32.421875 53.886719 L 32.421875 55.066406 C 32.421875 55.277344 32.355469 55.4375 32.222656 55.550781 C 32.089844 55.664062 31.898438 55.71875 31.644531 55.71875 C 31.5625 55.71875 31.484375 55.710938 31.40625 55.699219 C 31.328125 55.6875 31.253906 55.667969 31.175781 55.640625 L 31.175781 55.316406 C 31.25 55.355469 31.320312 55.386719 31.390625 55.410156 C 31.460938 55.429688 31.53125 55.441406 31.601562 55.441406 C 31.742188 55.441406 31.839844 55.410156 31.90625 55.351562 C 31.96875 55.289062 32 55.195312 32 55.066406 Z M 31.726562 54.160156 C 31.636719 54.160156 31.570312 54.191406 31.523438 54.257812 C 31.472656 54.320312 31.449219 54.410156 31.449219 54.527344 C 31.449219 54.648438 31.472656 54.738281 31.519531 54.800781 C 31.566406 54.863281 31.636719 54.894531 31.726562 54.894531 C 31.8125 54.894531 31.878906 54.863281 31.929688 54.800781 C 31.976562 54.734375 32 54.644531 32 54.527344 C 32 54.410156 31.976562 54.320312 31.929688 54.257812 C 31.878906 54.191406 31.8125 54.160156 31.726562 54.160156 Z M 31.726562 54.160156 "/>
<path style=" stroke:none;fill-rule:nonzero;fill:rgb(0%,0%,0%);fill-opacity:1;" d="M 33.414062 54.609375 C 33.328125 54.609375 33.261719 54.625 33.21875 54.652344 C 33.171875 54.683594 33.152344 54.726562 33.152344 54.785156 C 33.152344 54.839844 33.167969 54.878906 33.203125 54.910156 C 33.242188 54.941406 33.289062 54.953125 33.351562 54.953125 C 33.429688 54.953125 33.5 54.925781 33.550781 54.871094 C 33.605469 54.8125 33.632812 54.742188 33.632812 54.65625 L 33.632812 54.609375 Z M 34.054688 54.453125 L 34.054688 55.199219 L 33.632812 55.199219 L 33.632812 55.003906 C 33.578125 55.085938 33.511719 55.144531 33.441406 55.179688 C 33.371094 55.214844 33.285156 55.234375 33.1875 55.234375 C 33.050781 55.234375 32.941406 55.195312 32.855469 55.117188 C 32.769531 55.035156 32.726562 54.933594 32.726562 54.804688 C 32.726562 54.652344 32.78125 54.539062 32.886719 54.46875 C 32.992188 54.394531 33.160156 54.359375 33.386719 54.359375 L 33.632812 54.359375 L 33.632812 54.328125 C 33.632812 54.261719 33.605469 54.210938 33.554688 54.183594 C 33.5 54.152344 33.417969 54.136719 33.308594 54.136719 C 33.21875 54.136719 33.136719 54.144531 33.058594 54.160156 C 32.980469 54.179688 32.910156 54.207031 32.84375 54.242188 L 32.84375 53.921875 C 32.933594 53.902344 33.023438 53.882812 33.113281 53.871094 C 33.203125 53.863281 33.292969 53.855469 33.386719 53.855469 C 33.621094 53.855469 33.792969 53.902344 33.898438 53.996094 C 34.003906 54.089844 34.054688 54.242188 34.054688 54.453125 Z M 34.054688 54.453125 "/>
<path style=" stroke:none;fill-rule:nonzero;fill:rgb(0%,0%,0%);fill-opacity:1;" d="M 35.09375 53.449219 L 35.542969 53.449219 L 36.007812 54.742188 L 36.472656 53.449219 L 36.925781 53.449219 L 36.277344 55.199219 L 35.738281 55.199219 Z M 35.09375 53.449219 "/>
<path style=" stroke:none;fill-rule:nonzero;fill:rgb(0%,0%,0%);fill-opacity:1;" d="M 37.140625 53.886719 L 37.558594 53.886719 L 37.558594 55.199219 L 37.140625 55.199219 Z M 37.140625 53.375 L 37.558594 53.375 L 37.558594 53.71875 L 37.140625 53.71875 Z M 37.140625 53.375 "/>
<path style=" stroke:none;fill-rule:nonzero;fill:rgb(0%,0%,0%);fill-opacity:1;" d="M 38.855469 54.976562 C 38.796875 55.054688 38.734375 55.109375 38.664062 55.144531 C 38.59375 55.183594 38.511719 55.199219 38.421875 55.199219 C 38.261719 55.199219 38.128906 55.136719 38.023438 55.011719 C 37.921875 54.882812 37.867188 54.722656 37.867188 54.527344 C 37.867188 54.332031 37.921875 54.171875 38.023438 54.046875 C 38.128906 53.921875 38.261719 53.859375 38.421875 53.859375 C 38.511719 53.859375 38.59375 53.875 38.664062 53.914062 C 38.734375 53.949219 38.796875 54.003906 38.855469 54.082031 L 38.855469 53.886719 L 39.277344 53.886719 L 39.277344 55.066406 C 39.277344 55.277344 39.210938 55.4375 39.078125 55.550781 C 38.945312 55.664062 38.75 55.71875 38.496094 55.71875 C 38.414062 55.71875 38.335938 55.710938 38.257812 55.699219 C 38.183594 55.6875 38.105469 55.667969 38.027344 55.640625 L 38.027344 55.316406 C 38.101562 55.355469 38.175781 55.386719 38.242188 55.410156 C 38.3125 55.429688 38.386719 55.441406 38.457031 55.441406 C 38.59375 55.441406 38.695312 55.410156 38.757812 55.351562 C 38.820312 55.289062 38.855469 55.195312 38.855469 55.066406 Z M 38.578125 54.160156 C 38.492188 54.160156 38.421875 54.191406 38.375 54.257812 C 38.328125 54.320312 38.300781 54.410156 38.300781 54.527344 C 38.300781 54.648438 38.324219 54.738281 38.371094 54.800781 C 38.417969 54.863281 38.488281 54.894531 38.578125 54.894531 C 38.664062 54.894531 38.734375 54.863281 38.78125 54.800781 C 38.832031 54.734375 38.855469 54.644531 38.855469 54.527344 C 38.855469 54.410156 38.832031 54.320312 38.78125 54.257812 C 38.734375 54.191406 38.664062 54.160156 38.578125 54.160156 Z M 38.578125 54.160156 "/>
<path style=" stroke:none;fill-rule:nonzero;fill:rgb(0%,0%,0%);fill-opacity:1;" d="M 41 54.402344 L 41 55.199219 L 40.578125 55.199219 L 40.578125 54.589844 C 40.578125 54.476562 40.574219 54.394531 40.570312 54.355469 C 40.5625 54.3125 40.554688 54.277344 40.542969 54.257812 C 40.527344 54.230469 40.503906 54.210938 40.476562 54.195312 C 40.449219 54.179688 40.417969 54.171875 40.378906 54.171875 C 40.292969 54.171875 40.222656 54.207031 40.175781 54.273438 C 40.125 54.339844 40.097656 54.433594 40.097656 54.554688 L 40.097656 55.199219 L 39.679688 55.199219 L 39.679688 53.886719 L 40.097656 53.886719 L 40.097656 54.078125 C 40.164062 54.003906 40.230469 53.945312 40.300781 53.910156 C 40.371094 53.875 40.449219 53.855469 40.535156 53.855469 C 40.6875 53.855469 40.804688 53.902344 40.882812 53.996094 C 40.960938 54.089844 41 54.222656 41 54.402344 Z M 41 54.402344 "/>
<path style=" stroke:none;fill-rule:nonzero;fill:rgb(0%,0%,0%);fill-opacity:1;" d="M 42.699219 54.539062 L 42.699219 54.660156 L 41.71875 54.660156 C 41.726562 54.757812 41.761719 54.832031 41.824219 54.882812 C 41.886719 54.929688 41.96875 54.953125 42.078125 54.953125 C 42.167969 54.953125 42.257812 54.941406 42.351562 54.917969 C 42.441406 54.890625 42.539062 54.851562 42.636719 54.796875 L 42.636719 55.121094 C 42.535156 55.15625 42.4375 55.183594 42.339844 55.203125 C 42.238281 55.222656 42.140625 55.234375 42.042969 55.234375 C 41.804688 55.234375 41.617188 55.171875 41.488281 55.050781 C 41.355469 54.933594 41.289062 54.761719 41.289062 54.546875 C 41.289062 54.332031 41.355469 54.164062 41.484375 54.039062 C 41.613281 53.917969 41.792969 53.855469 42.015625 53.855469 C 42.222656 53.855469 42.386719 53.917969 42.511719 54.042969 C 42.636719 54.167969 42.699219 54.332031 42.699219 54.539062 Z M 42.265625 54.402344 C 42.265625 54.320312 42.242188 54.257812 42.199219 54.207031 C 42.152344 54.160156 42.089844 54.136719 42.015625 54.136719 C 41.933594 54.136719 41.867188 54.15625 41.816406 54.203125 C 41.765625 54.25 41.734375 54.316406 41.722656 54.402344 Z M 42.265625 54.402344 "/>
<path style=" stroke:none;fill-rule:nonzero;fill:rgb(0%,0%,0%);fill-opacity:1;" d="M 44.042969 53.929688 L 44.042969 54.246094 C 43.953125 54.210938 43.863281 54.183594 43.78125 54.164062 C 43.695312 54.144531 43.617188 54.136719 43.542969 54.136719 C 43.464844 54.136719 43.40625 54.144531 43.367188 54.164062 C 43.328125 54.183594 43.308594 54.214844 43.308594 54.257812 C 43.308594 54.289062 43.324219 54.316406 43.351562 54.332031 C 43.382812 54.351562 43.433594 54.363281 43.511719 54.375 L 43.585938 54.382812 C 43.800781 54.414062 43.945312 54.457031 44.019531 54.519531 C 44.09375 54.582031 44.128906 54.679688 44.128906 54.8125 C 44.128906 54.953125 44.078125 55.058594 43.972656 55.128906 C 43.871094 55.199219 43.71875 55.234375 43.511719 55.234375 C 43.425781 55.234375 43.335938 55.226562 43.242188 55.214844 C 43.152344 55.199219 43.054688 55.179688 42.957031 55.152344 L 42.957031 54.832031 C 43.042969 54.875 43.128906 54.90625 43.214844 54.925781 C 43.304688 54.945312 43.394531 54.953125 43.484375 54.953125 C 43.566406 54.953125 43.628906 54.945312 43.667969 54.921875 C 43.710938 54.898438 43.730469 54.863281 43.730469 54.820312 C 43.730469 54.78125 43.714844 54.753906 43.6875 54.738281 C 43.660156 54.71875 43.601562 54.703125 43.515625 54.695312 L 43.445312 54.683594 C 43.257812 54.660156 43.125 54.617188 43.050781 54.554688 C 42.976562 54.492188 42.9375 54.394531 42.9375 54.265625 C 42.9375 54.128906 42.984375 54.023438 43.082031 53.957031 C 43.175781 53.890625 43.324219 53.855469 43.519531 53.855469 C 43.597656 53.855469 43.675781 53.863281 43.761719 53.875 C 43.847656 53.886719 43.941406 53.902344 44.042969 53.929688 Z M 44.042969 53.929688 "/>
<path style=" stroke:none;fill-rule:nonzero;fill:rgb(0%,0%,0%);fill-opacity:1;" d="M 45.765625 54.402344 L 45.765625 55.199219 L 45.34375 55.199219 L 45.34375 54.589844 C 45.34375 54.476562 45.339844 54.394531 45.335938 54.355469 C 45.328125 54.3125 45.320312 54.277344 45.308594 54.257812 C 45.292969 54.230469 45.269531 54.210938 45.242188 54.195312 C 45.214844 54.179688 45.179688 54.171875 45.144531 54.171875 C 45.058594 54.171875 44.988281 54.207031 44.9375 54.273438 C 44.890625 54.339844 44.863281 54.433594 44.863281 54.554688 L 44.863281 55.199219 L 44.445312 55.199219 L 44.445312 53.375 L 44.863281 53.375 L 44.863281 54.078125 C 44.925781 54.003906 44.996094 53.945312 45.066406 53.910156 C 45.136719 53.875 45.214844 53.855469 45.300781 53.855469 C 45.453125 53.855469 45.566406 53.902344 45.648438 53.996094 C 45.726562 54.089844 45.765625 54.222656 45.765625 54.402344 Z M 45.765625 54.402344 "/>
<path style=" stroke:none;fill-rule:nonzero;fill:rgb(0%,0%,0%);fill-opacity:1;" d="M 7.066406 55.777344 L 7.066406 56.050781 L 6.832031 56.050781 C 6.773438 56.050781 6.734375 56.0625 6.707031 56.082031 C 6.683594 56.105469 6.671875 56.144531 6.671875 56.195312 L 6.671875 56.289062 L 7.03125 56.289062 L 7.03125 56.585938 L 6.671875 56.585938 L 6.671875 57.601562 L 6.253906 57.601562 L 6.253906 56.585938 L 6.046875 56.585938 L 6.046875 56.289062 L 6.253906 56.289062 L 6.253906 56.195312 C 6.253906 56.054688 6.292969 55.949219 6.375 55.878906 C 6.453125 55.808594 6.578125 55.777344 6.746094 55.777344 Z M 7.066406 55.777344 "/>
<path style=" stroke:none;fill-rule:nonzero;fill:rgb(0%,0%,0%);fill-opacity:1;" d="M 8.222656 56.644531 C 8.183594 56.628906 8.148438 56.617188 8.109375 56.609375 C 8.074219 56.597656 8.039062 56.59375 8 56.59375 C 7.894531 56.59375 7.8125 56.628906 7.753906 56.699219 C 7.695312 56.769531 7.664062 56.867188 7.664062 56.996094 L 7.664062 57.601562 L 7.246094 57.601562 L 7.246094 56.289062 L 7.664062 56.289062 L 7.664062 56.503906 C 7.71875 56.417969 7.78125 56.355469 7.851562 56.316406 C 7.921875 56.277344 8.003906 56.253906 8.101562 56.253906 C 8.117188 56.253906 8.132812 56.257812 8.148438 56.257812 C 8.164062 56.257812 8.1875 56.261719 8.21875 56.265625 Z M 8.222656 56.644531 "/>
<path style=" stroke:none;fill-rule:nonzero;fill:rgb(0%,0%,0%);fill-opacity:1;" d="M 9.054688 56.554688 C 8.960938 56.554688 8.890625 56.589844 8.839844 56.65625 C 8.792969 56.722656 8.769531 56.820312 8.769531 56.945312 C 8.769531 57.070312 8.792969 57.167969 8.839844 57.234375 C 8.890625 57.300781 8.960938 57.332031 9.054688 57.332031 C 9.144531 57.332031 9.214844 57.300781 9.261719 57.234375 C 9.3125 57.167969 9.335938 57.070312 9.335938 56.945312 C 9.335938 56.820312 9.3125 56.722656 9.261719 56.65625 C 9.214844 56.589844 9.144531 56.554688 9.054688 56.554688 Z M 9.054688 56.253906 C 9.28125 56.253906 9.457031 56.316406 9.582031 56.4375 C 9.710938 56.558594 9.773438 56.730469 9.773438 56.945312 C 9.773438 57.160156 9.710938 57.328125 9.582031 57.453125 C 9.457031 57.574219 9.28125 57.632812 9.054688 57.632812 C 8.828125 57.632812 8.648438 57.574219 8.523438 57.453125 C 8.394531 57.328125 8.332031 57.160156 8.332031 56.945312 C 8.332031 56.730469 8.394531 56.558594 8.523438 56.4375 C 8.648438 56.316406 8.828125 56.253906 9.054688 56.253906 Z M 9.054688 56.253906 "/>
<path style=" stroke:none;fill-rule:nonzero;fill:rgb(0%,0%,0%);fill-opacity:1;" d="M 11.292969 56.503906 C 11.347656 56.425781 11.410156 56.363281 11.484375 56.320312 C 11.558594 56.277344 11.636719 56.253906 11.726562 56.253906 C 11.875 56.253906 11.992188 56.300781 12.070312 56.394531 C 12.148438 56.488281 12.1875 56.625 12.1875 56.800781 L 12.1875 57.601562 L 11.765625 57.601562 L 11.765625 56.886719 C 11.765625 56.875 11.769531 56.855469 11.769531 56.835938 C 11.769531 56.742188 11.753906 56.675781 11.726562 56.636719 C 11.699219 56.59375 11.65625 56.574219 11.59375 56.574219 C 11.515625 56.574219 11.453125 56.605469 11.410156 56.671875 C 11.367188 56.738281 11.34375 56.832031 11.34375 56.957031 L 11.34375 57.601562 L 10.921875 57.601562 L 10.921875 56.914062 C 10.921875 56.769531 10.910156 56.675781 10.882812 56.636719 C 10.859375 56.59375 10.8125 56.574219 10.75 56.574219 C 10.667969 56.574219 10.605469 56.605469 10.5625 56.671875 C 10.519531 56.738281 10.496094 56.832031 10.496094 56.953125 L 10.496094 57.601562 L 10.074219 57.601562 L 10.074219 56.289062 L 10.496094 56.289062 L 10.496094 56.480469 C 10.550781 56.40625 10.609375 56.347656 10.675781 56.3125 C 10.742188 56.273438 10.816406 56.253906 10.894531 56.253906 C 10.988281 56.253906 11.066406 56.277344 11.136719 56.320312 C 11.207031 56.363281 11.257812 56.425781 11.292969 56.503906 Z M 11.292969 56.503906 "/>
<path style=" stroke:none;fill-rule:nonzero;fill:rgb(0%,0%,0%);fill-opacity:1;" d="M 13.875 55.914062 L 13.875 56.289062 L 14.304688 56.289062 L 14.304688 56.585938 L 13.875 56.585938 L 13.875 57.144531 C 13.875 57.207031 13.886719 57.246094 13.910156 57.269531 C 13.933594 57.289062 13.980469 57.300781 14.054688 57.300781 L 14.269531 57.300781 L 14.269531 57.601562 L 13.910156 57.601562 C 13.742188 57.601562 13.625 57.566406 13.554688 57.496094 C 13.488281 57.425781 13.453125 57.308594 13.453125 57.144531 L 13.453125 56.585938 L 13.246094 56.585938 L 13.246094 56.289062 L 13.453125 56.289062 L 13.453125 55.914062 Z M 13.875 55.914062 "/>
<path style=" stroke:none;fill-rule:nonzero;fill:rgb(0%,0%,0%);fill-opacity:1;" d="M 15.882812 56.800781 L 15.882812 57.601562 L 15.460938 57.601562 L 15.460938 56.992188 C 15.460938 56.875 15.457031 56.796875 15.453125 56.753906 C 15.445312 56.710938 15.4375 56.679688 15.425781 56.660156 C 15.410156 56.632812 15.386719 56.609375 15.359375 56.59375 C 15.332031 56.582031 15.296875 56.574219 15.261719 56.574219 C 15.175781 56.574219 15.105469 56.605469 15.054688 56.675781 C 15.007812 56.742188 14.980469 56.835938 14.980469 56.953125 L 14.980469 57.601562 L 14.5625 57.601562 L 14.5625 55.777344 L 14.980469 55.777344 L 14.980469 56.480469 C 15.042969 56.402344 15.113281 56.347656 15.183594 56.308594 C 15.253906 56.273438 15.332031 56.253906 15.417969 56.253906 C 15.570312 56.253906 15.683594 56.300781 15.765625 56.394531 C 15.84375 56.488281 15.882812 56.625 15.882812 56.800781 Z M 15.882812 56.800781 "/>
<path style=" stroke:none;fill-rule:nonzero;fill:rgb(0%,0%,0%);fill-opacity:1;" d="M 17.582031 56.941406 L 17.582031 57.058594 L 16.597656 57.058594 C 16.609375 57.160156 16.644531 57.230469 16.707031 57.28125 C 16.765625 57.332031 16.851562 57.355469 16.960938 57.355469 C 17.050781 57.355469 17.140625 57.34375 17.234375 57.316406 C 17.324219 57.289062 17.421875 57.25 17.519531 57.195312 L 17.519531 57.519531 C 17.417969 57.558594 17.320312 57.585938 17.21875 57.605469 C 17.121094 57.625 17.023438 57.632812 16.921875 57.632812 C 16.683594 57.632812 16.5 57.574219 16.367188 57.453125 C 16.238281 57.332031 16.171875 57.164062 16.171875 56.945312 C 16.171875 56.730469 16.238281 56.5625 16.367188 56.441406 C 16.496094 56.316406 16.671875 56.253906 16.898438 56.253906 C 17.105469 56.253906 17.269531 56.316406 17.394531 56.441406 C 17.519531 56.566406 17.582031 56.734375 17.582031 56.941406 Z M 17.148438 56.800781 C 17.148438 56.722656 17.125 56.65625 17.078125 56.609375 C 17.035156 56.558594 16.972656 56.535156 16.898438 56.535156 C 16.816406 56.535156 16.75 56.558594 16.699219 56.605469 C 16.648438 56.648438 16.617188 56.714844 16.605469 56.800781 Z M 17.148438 56.800781 "/>
<path style=" stroke:none;fill-rule:nonzero;fill:rgb(0%,0%,0%);fill-opacity:1;" d="M 18.753906 55.851562 L 19.257812 55.851562 L 19.894531 57.050781 L 19.894531 55.851562 L 20.320312 55.851562 L 20.320312 57.601562 L 19.816406 57.601562 L 19.179688 56.398438 L 19.179688 57.601562 L 18.753906 57.601562 Z M 18.753906 55.851562 "/>
<path style=" stroke:none;fill-rule:nonzero;fill:rgb(0%,0%,0%);fill-opacity:1;" d="M 21.367188 56.554688 C 21.273438 56.554688 21.203125 56.589844 21.152344 56.65625 C 21.105469 56.722656 21.082031 56.820312 21.082031 56.945312 C 21.082031 57.070312 21.105469 57.167969 21.152344 57.234375 C 21.203125 57.300781 21.273438 57.332031 21.367188 57.332031 C 21.457031 57.332031 21.527344 57.300781 21.574219 57.234375 C 21.625 57.167969 21.648438 57.070312 21.648438 56.945312 C 21.648438 56.820312 21.625 56.722656 21.574219 56.65625 C 21.527344 56.589844 21.457031 56.554688 21.367188 56.554688 Z M 21.367188 56.253906 C 21.59375 56.253906 21.769531 56.316406 21.894531 56.4375 C 22.023438 56.558594 22.085938 56.730469 22.085938 56.945312 C 22.085938 57.160156 22.023438 57.328125 21.894531 57.453125 C 21.769531 57.574219 21.59375 57.632812 21.367188 57.632812 C 21.140625 57.632812 20.960938 57.574219 20.835938 57.453125 C 20.707031 57.328125 20.644531 57.160156 20.644531 56.945312 C 20.644531 56.730469 20.707031 56.558594 20.835938 56.4375 C 20.960938 56.316406 21.140625 56.253906 21.367188 56.253906 Z M 21.367188 56.253906 "/>
<path style=" stroke:none;fill-rule:nonzero;fill:rgb(0%,0%,0%);fill-opacity:1;" d="M 22.378906 57.089844 L 22.378906 56.289062 L 22.800781 56.289062 L 22.800781 56.417969 C 22.800781 56.492188 22.796875 56.578125 22.796875 56.6875 C 22.796875 56.792969 22.796875 56.867188 22.796875 56.902344 C 22.796875 57.007812 22.800781 57.082031 22.804688 57.128906 C 22.808594 57.175781 22.820312 57.210938 22.832031 57.230469 C 22.851562 57.257812 22.871094 57.28125 22.902344 57.292969 C 22.929688 57.308594 22.960938 57.316406 22.996094 57.316406 C 23.082031 57.316406 23.152344 57.28125 23.203125 57.214844 C 23.253906 57.148438 23.277344 57.054688 23.277344 56.9375 L 23.277344 56.289062 L 23.695312 56.289062 L 23.695312 57.601562 L 23.277344 57.601562 L 23.277344 57.410156 C 23.214844 57.488281 23.148438 57.542969 23.078125 57.578125 C 23.003906 57.617188 22.925781 57.632812 22.84375 57.632812 C 22.691406 57.632812 22.574219 57.585938 22.496094 57.496094 C 22.417969 57.402344 22.378906 57.265625 22.378906 57.089844 Z M 22.378906 57.089844 "/>
<path style=" stroke:none;fill-rule:nonzero;fill:rgb(0%,0%,0%);fill-opacity:1;" d="M 25.417969 56.800781 L 25.417969 57.601562 L 24.996094 57.601562 L 24.996094 56.988281 C 24.996094 56.875 24.996094 56.796875 24.988281 56.753906 C 24.984375 56.710938 24.976562 56.679688 24.964844 56.660156 C 24.945312 56.632812 24.925781 56.609375 24.894531 56.59375 C 24.867188 56.582031 24.835938 56.574219 24.800781 56.574219 C 24.714844 56.574219 24.644531 56.605469 24.59375 56.675781 C 24.542969 56.742188 24.519531 56.835938 24.519531 56.953125 L 24.519531 57.601562 L 24.101562 57.601562 L 24.101562 56.289062 L 24.519531 56.289062 L 24.519531 56.480469 C 24.582031 56.402344 24.648438 56.347656 24.71875 56.308594 C 24.792969 56.273438 24.871094 56.253906 24.957031 56.253906 C 25.109375 56.253906 25.222656 56.300781 25.300781 56.394531 C 25.378906 56.488281 25.417969 56.625 25.417969 56.800781 Z M 25.417969 56.800781 "/>
<path style=" stroke:none;fill-rule:nonzero;fill:rgb(0%,0%,0%);fill-opacity:1;" d="M 26.664062 55.851562 L 27.410156 55.851562 C 27.632812 55.851562 27.804688 55.902344 27.921875 56 C 28.042969 56.097656 28.101562 56.238281 28.101562 56.421875 C 28.101562 56.605469 28.042969 56.746094 27.921875 56.84375 C 27.804688 56.945312 27.632812 56.992188 27.410156 56.992188 L 27.113281 56.992188 L 27.113281 57.601562 L 26.664062 57.601562 Z M 27.113281 56.175781 L 27.113281 56.667969 L 27.363281 56.667969 C 27.449219 56.667969 27.519531 56.644531 27.566406 56.601562 C 27.613281 56.558594 27.636719 56.5 27.636719 56.421875 C 27.636719 56.34375 27.613281 56.28125 27.566406 56.242188 C 27.519531 56.199219 27.449219 56.175781 27.363281 56.175781 Z M 27.113281 56.175781 "/>
<path style=" stroke:none;fill-rule:nonzero;fill:rgb(0%,0%,0%);fill-opacity:1;" d="M 29.378906 56.644531 C 29.339844 56.628906 29.304688 56.617188 29.265625 56.609375 C 29.230469 56.597656 29.195312 56.59375 29.160156 56.59375 C 29.050781 56.59375 28.96875 56.628906 28.910156 56.699219 C 28.851562 56.769531 28.824219 56.867188 28.824219 56.996094 L 28.824219 57.601562 L 28.402344 57.601562 L 28.402344 56.289062 L 28.824219 56.289062 L 28.824219 56.503906 C 28.875 56.417969 28.9375 56.355469 29.007812 56.316406 C 29.078125 56.277344 29.160156 56.253906 29.257812 56.253906 C 29.273438 56.253906 29.289062 56.257812 29.304688 56.257812 C 29.320312 56.257812 29.347656 56.261719 29.378906 56.265625 Z M 29.378906 56.644531 "/>
<path style=" stroke:none;fill-rule:nonzero;fill:rgb(0%,0%,0%);fill-opacity:1;" d="M 30.210938 56.554688 C 30.117188 56.554688 30.046875 56.589844 29.996094 56.65625 C 29.949219 56.722656 29.925781 56.820312 29.925781 56.945312 C 29.925781 57.070312 29.949219 57.167969 29.996094 57.234375 C 30.046875 57.300781 30.117188 57.332031 30.210938 57.332031 C 30.300781 57.332031 30.371094 57.300781 30.417969 57.234375 C 30.46875 57.167969 30.492188 57.070312 30.492188 56.945312 C 30.492188 56.820312 30.46875 56.722656 30.417969 56.65625 C 30.371094 56.589844 30.300781 56.554688 30.210938 56.554688 Z M 30.210938 56.253906 C 30.4375 56.253906 30.613281 56.316406 30.738281 56.4375 C 30.867188 56.558594 30.929688 56.730469 30.929688 56.945312 C 30.929688 57.160156 30.867188 57.328125 30.738281 57.453125 C 30.613281 57.574219 30.4375 57.632812 30.210938 57.632812 C 29.984375 57.632812 29.808594 57.574219 29.679688 57.453125 C 29.550781 57.328125 29.488281 57.160156 29.488281 56.945312 C 29.488281 56.730469 29.550781 56.558594 29.679688 56.4375 C 29.808594 56.316406 29.984375 56.253906 30.210938 56.253906 Z M 30.210938 56.253906 "/>
<path style=" stroke:none;fill-rule:nonzero;fill:rgb(0%,0%,0%);fill-opacity:1;" d="M 31.234375 56.289062 L 31.65625 56.289062 L 31.65625 57.574219 C 31.65625 57.75 31.613281 57.886719 31.527344 57.980469 C 31.445312 58.070312 31.320312 58.117188 31.160156 58.117188 L 30.953125 58.117188 L 30.953125 57.84375 L 31.027344 57.84375 C 31.105469 57.84375 31.160156 57.824219 31.191406 57.789062 C 31.21875 57.753906 31.234375 57.683594 31.234375 57.574219 Z M 31.234375 55.777344 L 31.65625 55.777344 L 31.65625 56.117188 L 31.234375 56.117188 Z M 31.234375 55.777344 "/>
<path style=" stroke:none;fill-rule:nonzero;fill:rgb(0%,0%,0%);fill-opacity:1;" d="M 33.367188 56.941406 L 33.367188 57.058594 L 32.386719 57.058594 C 32.398438 57.160156 32.433594 57.230469 32.492188 57.28125 C 32.554688 57.332031 32.640625 57.355469 32.75 57.355469 C 32.839844 57.355469 32.929688 57.34375 33.019531 57.316406 C 33.113281 57.289062 33.207031 57.25 33.304688 57.195312 L 33.304688 57.519531 C 33.207031 57.558594 33.105469 57.585938 33.007812 57.605469 C 32.910156 57.625 32.808594 57.632812 32.710938 57.632812 C 32.472656 57.632812 32.289062 57.574219 32.15625 57.453125 C 32.023438 57.332031 31.960938 57.164062 31.960938 56.945312 C 31.960938 56.730469 32.023438 56.5625 32.152344 56.441406 C 32.28125 56.316406 32.460938 56.253906 32.6875 56.253906 C 32.894531 56.253906 33.058594 56.316406 33.183594 56.441406 C 33.304688 56.566406 33.367188 56.734375 33.367188 56.941406 Z M 32.9375 56.800781 C 32.9375 56.722656 32.914062 56.65625 32.867188 56.609375 C 32.820312 56.558594 32.761719 56.535156 32.683594 56.535156 C 32.605469 56.535156 32.539062 56.558594 32.488281 56.605469 C 32.4375 56.648438 32.40625 56.714844 32.390625 56.800781 Z M 32.9375 56.800781 "/>
<path style=" stroke:none;fill-rule:nonzero;fill:rgb(0%,0%,0%);fill-opacity:1;" d="M 34.746094 56.328125 L 34.746094 56.671875 C 34.691406 56.632812 34.632812 56.601562 34.574219 56.582031 C 34.515625 56.566406 34.457031 56.554688 34.394531 56.554688 C 34.277344 56.554688 34.1875 56.589844 34.121094 56.660156 C 34.054688 56.726562 34.023438 56.820312 34.023438 56.945312 C 34.023438 57.066406 34.054688 57.164062 34.121094 57.230469 C 34.1875 57.300781 34.277344 57.332031 34.394531 57.332031 C 34.460938 57.332031 34.523438 57.324219 34.582031 57.304688 C 34.640625 57.285156 34.695312 57.257812 34.746094 57.21875 L 34.746094 57.5625 C 34.679688 57.585938 34.613281 57.601562 34.546875 57.613281 C 34.480469 57.628906 34.410156 57.632812 34.34375 57.632812 C 34.105469 57.632812 33.921875 57.574219 33.785156 57.453125 C 33.652344 57.332031 33.585938 57.160156 33.585938 56.945312 C 33.585938 56.726562 33.652344 56.558594 33.785156 56.4375 C 33.921875 56.316406 34.105469 56.253906 34.34375 56.253906 C 34.410156 56.253906 34.480469 56.261719 34.546875 56.273438 C 34.613281 56.285156 34.679688 56.304688 34.746094 56.328125 Z M 34.746094 56.328125 "/>
<path style=" stroke:none;fill-rule:nonzero;fill:rgb(0%,0%,0%);fill-opacity:1;" d="M 35.566406 55.914062 L 35.566406 56.289062 L 36 56.289062 L 36 56.585938 L 35.566406 56.585938 L 35.566406 57.144531 C 35.566406 57.207031 35.578125 57.246094 35.601562 57.269531 C 35.628906 57.289062 35.675781 57.300781 35.746094 57.300781 L 35.960938 57.300781 L 35.960938 57.601562 L 35.601562 57.601562 C 35.4375 57.601562 35.320312 57.566406 35.25 57.496094 C 35.179688 57.425781 35.144531 57.308594 35.144531 57.144531 L 35.144531 56.585938 L 34.9375 56.585938 L 34.9375 56.289062 L 35.144531 56.289062 L 35.144531 55.914062 Z M 35.566406 55.914062 "/>
</g>
</svg>
